<?xml version="1.0" encoding="UTF-8" standalone="no"?>
<!DOCTYPE svg PUBLIC "-//W3C//DTD SVG 1.1//EN"
 "http://www.w3.org/Graphics/SVG/1.1/DTD/svg11.dtd">
<!-- Generated by graphviz version 2.50.0 (20211205.1242)
 -->
<!-- Title: snakemake_dag Pages: 1 -->
<svg width="6698pt" height="260pt"
 viewBox="0.00 0.00 6697.50 260.00" xmlns="http://www.w3.org/2000/svg" xmlns:xlink="http://www.w3.org/1999/xlink">
<g id="graph0" class="graph" transform="scale(1 1) rotate(0) translate(4 256)">
<title>snakemake_dag</title>
<polygon fill="white" stroke="transparent" points="-4,4 -4,-256 6693.5,-256 6693.5,4 -4,4"/>
<!-- 0 -->
<g id="node1" class="node">
<title>0</title>
<path fill="none" stroke="#59d856" stroke-width="2" stroke-dasharray="5,2" d="M3433,-36C3433,-36 3403,-36 3403,-36 3397,-36 3391,-30 3391,-24 3391,-24 3391,-12 3391,-12 3391,-6 3397,0 3403,0 3403,0 3433,0 3433,0 3439,0 3445,-6 3445,-12 3445,-12 3445,-24 3445,-24 3445,-30 3439,-36 3433,-36"/>
<text text-anchor="middle" x="3418" y="-15.5" font-family="sans" font-size="10.00">all</text>
</g>
<!-- 1 -->
<g id="node2" class="node">
<title>1</title>
<path fill="none" stroke="#afd856" stroke-width="2" stroke-dasharray="5,2" d="M3446,-108C3446,-108 3390,-108 3390,-108 3384,-108 3378,-102 3378,-96 3378,-96 3378,-84 3378,-84 3378,-78 3384,-72 3390,-72 3390,-72 3446,-72 3446,-72 3452,-72 3458,-78 3458,-84 3458,-84 3458,-96 3458,-96 3458,-102 3452,-108 3446,-108"/>
<text text-anchor="middle" x="3418" y="-87.5" font-family="sans" font-size="10.00">csv_to_excel</text>
</g>
<!-- 1&#45;&gt;0 -->
<g id="edge1" class="edge">
<title>1&#45;&gt;0</title>
<path fill="none" stroke="grey" stroke-width="2" d="M3418,-71.7C3418,-63.98 3418,-54.71 3418,-46.11"/>
<polygon fill="grey" stroke="grey" stroke-width="2" points="3421.5,-46.1 3418,-36.1 3414.5,-46.1 3421.5,-46.1"/>
</g>
<!-- 2 -->
<g id="node3" class="node">
<title>2</title>
<path fill="none" stroke="#d8ac56" stroke-width="2" stroke-dasharray="5,2" d="M3392,-180C3392,-180 3310,-180 3310,-180 3304,-180 3298,-174 3298,-168 3298,-168 3298,-156 3298,-156 3298,-150 3304,-144 3310,-144 3310,-144 3392,-144 3392,-144 3398,-144 3404,-150 3404,-156 3404,-156 3404,-168 3404,-168 3404,-174 3398,-180 3392,-180"/>
<text text-anchor="middle" x="3351" y="-159.5" font-family="sans" font-size="10.00">busco_txts_to_csv</text>
</g>
<!-- 2&#45;&gt;1 -->
<g id="edge2" class="edge">
<title>2&#45;&gt;1</title>
<path fill="none" stroke="grey" stroke-width="2" d="M3367.56,-143.7C3375.68,-135.22 3385.59,-124.86 3394.47,-115.58"/>
<polygon fill="grey" stroke="grey" stroke-width="2" points="3397.24,-117.75 3401.63,-108.1 3392.19,-112.91 3397.24,-117.75"/>
</g>
<!-- 3 -->
<g id="node4" class="node">
<title>3</title>
<path fill="none" stroke="#56a9d8" stroke-width="2" stroke-dasharray="5,2" d="M66,-252C66,-252 12,-252 12,-252 6,-252 0,-246 0,-240 0,-240 0,-228 0,-228 0,-222 6,-216 12,-216 12,-216 66,-216 66,-216 72,-216 78,-222 78,-228 78,-228 78,-240 78,-240 78,-246 72,-252 66,-252"/>
<text text-anchor="middle" x="39" y="-237" font-family="sans" font-size="10.00">run_busco</text>
<text text-anchor="middle" x="39" y="-226" font-family="sans" font-size="10.00">id: SAP2.001</text>
</g>
<!-- 3&#45;&gt;2 -->
<g id="edge4" class="edge">
<title>3&#45;&gt;2</title>
<path fill="none" stroke="grey" stroke-width="2" d="M78.01,-218.02C81.02,-217.22 84.04,-216.53 87,-216 412.65,-157.31 2860.64,-161.59 3287.58,-162.8"/>
<polygon fill="grey" stroke="grey" stroke-width="2" points="3287.87,-166.3 3297.88,-162.83 3287.89,-159.3 3287.87,-166.3"/>
</g>
<!-- 4 -->
<g id="node5" class="node">
<title>4</title>
<path fill="none" stroke="#56a9d8" stroke-width="2" stroke-dasharray="5,2" d="M162,-252C162,-252 108,-252 108,-252 102,-252 96,-246 96,-240 96,-240 96,-228 96,-228 96,-222 102,-216 108,-216 108,-216 162,-216 162,-216 168,-216 174,-222 174,-228 174,-228 174,-240 174,-240 174,-246 168,-252 162,-252"/>
<text text-anchor="middle" x="135" y="-237" font-family="sans" font-size="10.00">run_busco</text>
<text text-anchor="middle" x="135" y="-226" font-family="sans" font-size="10.00">id: SAP2.003</text>
</g>
<!-- 4&#45;&gt;2 -->
<g id="edge5" class="edge">
<title>4&#45;&gt;2</title>
<path fill="none" stroke="grey" stroke-width="2" d="M174.01,-218.02C177.02,-217.23 180.04,-216.53 183,-216 498.64,-159.03 2868.76,-161.88 3287.79,-162.83"/>
<polygon fill="grey" stroke="grey" stroke-width="2" points="3287.89,-166.33 3297.9,-162.85 3287.91,-159.33 3287.89,-166.33"/>
</g>
<!-- 5 -->
<g id="node6" class="node">
<title>5</title>
<path fill="none" stroke="#56a9d8" stroke-width="2" stroke-dasharray="5,2" d="M258,-252C258,-252 204,-252 204,-252 198,-252 192,-246 192,-240 192,-240 192,-228 192,-228 192,-222 198,-216 204,-216 204,-216 258,-216 258,-216 264,-216 270,-222 270,-228 270,-228 270,-240 270,-240 270,-246 264,-252 258,-252"/>
<text text-anchor="middle" x="231" y="-237" font-family="sans" font-size="10.00">run_busco</text>
<text text-anchor="middle" x="231" y="-226" font-family="sans" font-size="10.00">id: SAP2.068</text>
</g>
<!-- 5&#45;&gt;2 -->
<g id="edge6" class="edge">
<title>5&#45;&gt;2</title>
<path fill="none" stroke="grey" stroke-width="2" d="M270.01,-218.03C273.02,-217.23 276.04,-216.53 279,-216 584.59,-160.77 2876.14,-162.16 3287.77,-162.87"/>
<polygon fill="grey" stroke="grey" stroke-width="2" points="3287.99,-166.37 3297.99,-162.89 3288,-159.37 3287.99,-166.37"/>
</g>
<!-- 6 -->
<g id="node7" class="node">
<title>6</title>
<path fill="none" stroke="#56a9d8" stroke-width="2" stroke-dasharray="5,2" d="M354,-252C354,-252 300,-252 300,-252 294,-252 288,-246 288,-240 288,-240 288,-228 288,-228 288,-222 294,-216 300,-216 300,-216 354,-216 354,-216 360,-216 366,-222 366,-228 366,-228 366,-240 366,-240 366,-246 360,-252 354,-252"/>
<text text-anchor="middle" x="327" y="-237" font-family="sans" font-size="10.00">run_busco</text>
<text text-anchor="middle" x="327" y="-226" font-family="sans" font-size="10.00">id: SAP2.059</text>
</g>
<!-- 6&#45;&gt;2 -->
<g id="edge7" class="edge">
<title>6&#45;&gt;2</title>
<path fill="none" stroke="grey" stroke-width="2" d="M366.01,-218.03C369.02,-217.23 372.04,-216.54 375,-216 670.55,-162.5 2883.89,-162.46 3287.82,-162.91"/>
<polygon fill="grey" stroke="grey" stroke-width="2" points="3287.86,-166.41 3297.86,-162.92 3287.87,-159.41 3287.86,-166.41"/>
</g>
<!-- 7 -->
<g id="node8" class="node">
<title>7</title>
<path fill="none" stroke="#56a9d8" stroke-width="2" stroke-dasharray="5,2" d="M450,-252C450,-252 396,-252 396,-252 390,-252 384,-246 384,-240 384,-240 384,-228 384,-228 384,-222 390,-216 396,-216 396,-216 450,-216 450,-216 456,-216 462,-222 462,-228 462,-228 462,-240 462,-240 462,-246 456,-252 450,-252"/>
<text text-anchor="middle" x="423" y="-237" font-family="sans" font-size="10.00">run_busco</text>
<text text-anchor="middle" x="423" y="-226" font-family="sans" font-size="10.00">id: SAP2.015</text>
</g>
<!-- 7&#45;&gt;2 -->
<g id="edge8" class="edge">
<title>7&#45;&gt;2</title>
<path fill="none" stroke="grey" stroke-width="2" d="M462.01,-218.03C465.02,-217.23 468.04,-216.54 471,-216 756.48,-164.23 2891.06,-162.77 3287.68,-162.95"/>
<polygon fill="grey" stroke="grey" stroke-width="2" points="3287.82,-166.45 3297.82,-162.95 3287.82,-159.45 3287.82,-166.45"/>
</g>
<!-- 8 -->
<g id="node9" class="node">
<title>8</title>
<path fill="none" stroke="#56a9d8" stroke-width="2" stroke-dasharray="5,2" d="M546,-252C546,-252 492,-252 492,-252 486,-252 480,-246 480,-240 480,-240 480,-228 480,-228 480,-222 486,-216 492,-216 492,-216 546,-216 546,-216 552,-216 558,-222 558,-228 558,-228 558,-240 558,-240 558,-246 552,-252 546,-252"/>
<text text-anchor="middle" x="519" y="-237" font-family="sans" font-size="10.00">run_busco</text>
<text text-anchor="middle" x="519" y="-226" font-family="sans" font-size="10.00">id: SAP2.024</text>
</g>
<!-- 8&#45;&gt;2 -->
<g id="edge9" class="edge">
<title>8&#45;&gt;2</title>
<path fill="none" stroke="grey" stroke-width="2" d="M558.01,-218.03C561.02,-217.23 564.04,-216.54 567,-216 842.44,-165.96 2898.77,-163.08 3287.65,-162.99"/>
<polygon fill="grey" stroke="grey" stroke-width="2" points="3287.86,-166.49 3297.86,-162.99 3287.86,-159.49 3287.86,-166.49"/>
</g>
<!-- 9 -->
<g id="node10" class="node">
<title>9</title>
<path fill="none" stroke="#56a9d8" stroke-width="2" stroke-dasharray="5,2" d="M642,-252C642,-252 588,-252 588,-252 582,-252 576,-246 576,-240 576,-240 576,-228 576,-228 576,-222 582,-216 588,-216 588,-216 642,-216 642,-216 648,-216 654,-222 654,-228 654,-228 654,-240 654,-240 654,-246 648,-252 642,-252"/>
<text text-anchor="middle" x="615" y="-237" font-family="sans" font-size="10.00">run_busco</text>
<text text-anchor="middle" x="615" y="-226" font-family="sans" font-size="10.00">id: SAP2.060</text>
</g>
<!-- 9&#45;&gt;2 -->
<g id="edge10" class="edge">
<title>9&#45;&gt;2</title>
<path fill="none" stroke="grey" stroke-width="2" d="M654.01,-218.03C657.02,-217.23 660.04,-216.54 663,-216 928.43,-167.69 2906.94,-163.41 3287.71,-163.04"/>
<polygon fill="grey" stroke="grey" stroke-width="2" points="3287.72,-166.54 3297.72,-163.03 3287.71,-159.54 3287.72,-166.54"/>
</g>
<!-- 10 -->
<g id="node11" class="node">
<title>10</title>
<path fill="none" stroke="#56a9d8" stroke-width="2" stroke-dasharray="5,2" d="M738,-252C738,-252 684,-252 684,-252 678,-252 672,-246 672,-240 672,-240 672,-228 672,-228 672,-222 678,-216 684,-216 684,-216 738,-216 738,-216 744,-216 750,-222 750,-228 750,-228 750,-240 750,-240 750,-246 744,-252 738,-252"/>
<text text-anchor="middle" x="711" y="-237" font-family="sans" font-size="10.00">run_busco</text>
<text text-anchor="middle" x="711" y="-226" font-family="sans" font-size="10.00">id: SAP2.006</text>
</g>
<!-- 10&#45;&gt;2 -->
<g id="edge11" class="edge">
<title>10&#45;&gt;2</title>
<path fill="none" stroke="grey" stroke-width="2" d="M750.01,-218.04C753.02,-217.24 756.04,-216.54 759,-216 1014.46,-169.4 2915.73,-163.75 3287.91,-163.09"/>
<polygon fill="grey" stroke="grey" stroke-width="2" points="3287.97,-166.59 3297.96,-163.07 3287.95,-159.59 3287.97,-166.59"/>
</g>
<!-- 11 -->
<g id="node12" class="node">
<title>11</title>
<path fill="none" stroke="#56a9d8" stroke-width="2" stroke-dasharray="5,2" d="M834,-252C834,-252 780,-252 780,-252 774,-252 768,-246 768,-240 768,-240 768,-228 768,-228 768,-222 774,-216 780,-216 780,-216 834,-216 834,-216 840,-216 846,-222 846,-228 846,-228 846,-240 846,-240 846,-246 840,-252 834,-252"/>
<text text-anchor="middle" x="807" y="-237" font-family="sans" font-size="10.00">run_busco</text>
<text text-anchor="middle" x="807" y="-226" font-family="sans" font-size="10.00">id: SAP2.042</text>
</g>
<!-- 11&#45;&gt;2 -->
<g id="edge12" class="edge">
<title>11&#45;&gt;2</title>
<path fill="none" stroke="grey" stroke-width="2" d="M846.01,-218.04C849.03,-217.24 852.04,-216.54 855,-216 1100.4,-171.14 2923.1,-164.1 3287.65,-163.14"/>
<polygon fill="grey" stroke="grey" stroke-width="2" points="3287.76,-166.64 3297.75,-163.11 3287.75,-159.64 3287.76,-166.64"/>
</g>
<!-- 12 -->
<g id="node13" class="node">
<title>12</title>
<path fill="none" stroke="#56a9d8" stroke-width="2" stroke-dasharray="5,2" d="M930,-252C930,-252 876,-252 876,-252 870,-252 864,-246 864,-240 864,-240 864,-228 864,-228 864,-222 870,-216 876,-216 876,-216 930,-216 930,-216 936,-216 942,-222 942,-228 942,-228 942,-240 942,-240 942,-246 936,-252 930,-252"/>
<text text-anchor="middle" x="903" y="-237" font-family="sans" font-size="10.00">run_busco</text>
<text text-anchor="middle" x="903" y="-226" font-family="sans" font-size="10.00">id: SAP2.033</text>
</g>
<!-- 12&#45;&gt;2 -->
<g id="edge13" class="edge">
<title>12&#45;&gt;2</title>
<path fill="none" stroke="grey" stroke-width="2" d="M942.01,-218.04C945.03,-217.24 948.04,-216.54 951,-216 1186.44,-172.86 2932.1,-164.46 3287.83,-163.2"/>
<polygon fill="grey" stroke="grey" stroke-width="2" points="3287.96,-166.7 3297.94,-163.16 3287.93,-159.7 3287.96,-166.7"/>
</g>
<!-- 13 -->
<g id="node14" class="node">
<title>13</title>
<path fill="none" stroke="#56a9d8" stroke-width="2" stroke-dasharray="5,2" d="M1026,-252C1026,-252 972,-252 972,-252 966,-252 960,-246 960,-240 960,-240 960,-228 960,-228 960,-222 966,-216 972,-216 972,-216 1026,-216 1026,-216 1032,-216 1038,-222 1038,-228 1038,-228 1038,-240 1038,-240 1038,-246 1032,-252 1026,-252"/>
<text text-anchor="middle" x="999" y="-237" font-family="sans" font-size="10.00">run_busco</text>
<text text-anchor="middle" x="999" y="-226" font-family="sans" font-size="10.00">id: SAP2.051</text>
</g>
<!-- 13&#45;&gt;2 -->
<g id="edge14" class="edge">
<title>13&#45;&gt;2</title>
<path fill="none" stroke="grey" stroke-width="2" d="M1038.02,-218.05C1041.03,-217.24 1044.04,-216.54 1047,-216 1272.47,-174.58 2940.81,-164.84 3287.87,-163.26"/>
<polygon fill="grey" stroke="grey" stroke-width="2" points="3288.01,-166.76 3297.99,-163.21 3287.97,-159.76 3288.01,-166.76"/>
</g>
<!-- 14 -->
<g id="node15" class="node">
<title>14</title>
<path fill="none" stroke="#56a9d8" stroke-width="2" stroke-dasharray="5,2" d="M1122,-252C1122,-252 1068,-252 1068,-252 1062,-252 1056,-246 1056,-240 1056,-240 1056,-228 1056,-228 1056,-222 1062,-216 1068,-216 1068,-216 1122,-216 1122,-216 1128,-216 1134,-222 1134,-228 1134,-228 1134,-240 1134,-240 1134,-246 1128,-252 1122,-252"/>
<text text-anchor="middle" x="1095" y="-237" font-family="sans" font-size="10.00">run_busco</text>
<text text-anchor="middle" x="1095" y="-226" font-family="sans" font-size="10.00">id: SAP2.028</text>
</g>
<!-- 14&#45;&gt;2 -->
<g id="edge15" class="edge">
<title>14&#45;&gt;2</title>
<path fill="none" stroke="grey" stroke-width="2" d="M1134.02,-218.05C1137.03,-217.24 1140.04,-216.54 1143,-216 1358.48,-176.3 2949.35,-165.24 3287.8,-163.33"/>
<polygon fill="grey" stroke="grey" stroke-width="2" points="3287.94,-166.83 3297.92,-163.27 3287.9,-159.83 3287.94,-166.83"/>
</g>
<!-- 15 -->
<g id="node16" class="node">
<title>15</title>
<path fill="none" stroke="#56a9d8" stroke-width="2" stroke-dasharray="5,2" d="M1218,-252C1218,-252 1164,-252 1164,-252 1158,-252 1152,-246 1152,-240 1152,-240 1152,-228 1152,-228 1152,-222 1158,-216 1164,-216 1164,-216 1218,-216 1218,-216 1224,-216 1230,-222 1230,-228 1230,-228 1230,-240 1230,-240 1230,-246 1224,-252 1218,-252"/>
<text text-anchor="middle" x="1191" y="-237" font-family="sans" font-size="10.00">run_busco</text>
<text text-anchor="middle" x="1191" y="-226" font-family="sans" font-size="10.00">id: SAP2.020</text>
</g>
<!-- 15&#45;&gt;2 -->
<g id="edge16" class="edge">
<title>15&#45;&gt;2</title>
<path fill="none" stroke="grey" stroke-width="2" d="M1230.02,-218.05C1233.03,-217.25 1236.04,-216.55 1239,-216 1444.49,-178.03 2957.91,-165.66 3287.68,-163.4"/>
<polygon fill="grey" stroke="grey" stroke-width="2" points="3288.02,-166.9 3298,-163.33 3287.97,-159.9 3288.02,-166.9"/>
</g>
<!-- 16 -->
<g id="node17" class="node">
<title>16</title>
<path fill="none" stroke="#56a9d8" stroke-width="2" stroke-dasharray="5,2" d="M1314,-252C1314,-252 1260,-252 1260,-252 1254,-252 1248,-246 1248,-240 1248,-240 1248,-228 1248,-228 1248,-222 1254,-216 1260,-216 1260,-216 1314,-216 1314,-216 1320,-216 1326,-222 1326,-228 1326,-228 1326,-240 1326,-240 1326,-246 1320,-252 1314,-252"/>
<text text-anchor="middle" x="1287" y="-237" font-family="sans" font-size="10.00">run_busco</text>
<text text-anchor="middle" x="1287" y="-226" font-family="sans" font-size="10.00">id: SAP2.046</text>
</g>
<!-- 16&#45;&gt;2 -->
<g id="edge17" class="edge">
<title>16&#45;&gt;2</title>
<path fill="none" stroke="grey" stroke-width="2" d="M1326.02,-218.06C1329.03,-217.25 1332.04,-216.55 1335,-216 1530.61,-179.73 2967.95,-166.09 3287.97,-163.48"/>
<polygon fill="grey" stroke="grey" stroke-width="2" points="3288.02,-166.98 3297.99,-163.4 3287.97,-159.98 3288.02,-166.98"/>
</g>
<!-- 17 -->
<g id="node18" class="node">
<title>17</title>
<path fill="none" stroke="#56a9d8" stroke-width="2" stroke-dasharray="5,2" d="M1410,-252C1410,-252 1356,-252 1356,-252 1350,-252 1344,-246 1344,-240 1344,-240 1344,-228 1344,-228 1344,-222 1350,-216 1356,-216 1356,-216 1410,-216 1410,-216 1416,-216 1422,-222 1422,-228 1422,-228 1422,-240 1422,-240 1422,-246 1416,-252 1410,-252"/>
<text text-anchor="middle" x="1383" y="-237" font-family="sans" font-size="10.00">run_busco</text>
<text text-anchor="middle" x="1383" y="-226" font-family="sans" font-size="10.00">id: SAP2.055</text>
</g>
<!-- 17&#45;&gt;2 -->
<g id="edge18" class="edge">
<title>17&#45;&gt;2</title>
<path fill="none" stroke="grey" stroke-width="2" d="M1422.02,-218.06C1425.03,-217.25 1428.04,-216.55 1431,-216 1616.58,-181.47 2975.92,-166.56 3287.49,-163.58"/>
<polygon fill="grey" stroke="grey" stroke-width="2" points="3287.73,-167.07 3297.7,-163.48 3287.66,-160.07 3287.73,-167.07"/>
</g>
<!-- 18 -->
<g id="node19" class="node">
<title>18</title>
<path fill="none" stroke="#56a9d8" stroke-width="2" stroke-dasharray="5,2" d="M1506,-252C1506,-252 1452,-252 1452,-252 1446,-252 1440,-246 1440,-240 1440,-240 1440,-228 1440,-228 1440,-222 1446,-216 1452,-216 1452,-216 1506,-216 1506,-216 1512,-216 1518,-222 1518,-228 1518,-228 1518,-240 1518,-240 1518,-246 1512,-252 1506,-252"/>
<text text-anchor="middle" x="1479" y="-237" font-family="sans" font-size="10.00">run_busco</text>
<text text-anchor="middle" x="1479" y="-226" font-family="sans" font-size="10.00">id: SAP2.019</text>
</g>
<!-- 18&#45;&gt;2 -->
<g id="edge19" class="edge">
<title>18&#45;&gt;2</title>
<path fill="none" stroke="grey" stroke-width="2" d="M1518.02,-218.07C1521.03,-217.26 1524.05,-216.55 1527,-216 1702.62,-183.19 2984.95,-167.05 3287.28,-163.68"/>
<polygon fill="grey" stroke="grey" stroke-width="2" points="3287.65,-167.17 3297.61,-163.56 3287.58,-160.17 3287.65,-167.17"/>
</g>
<!-- 19 -->
<g id="node20" class="node">
<title>19</title>
<path fill="none" stroke="#56a9d8" stroke-width="2" stroke-dasharray="5,2" d="M1602,-252C1602,-252 1548,-252 1548,-252 1542,-252 1536,-246 1536,-240 1536,-240 1536,-228 1536,-228 1536,-222 1542,-216 1548,-216 1548,-216 1602,-216 1602,-216 1608,-216 1614,-222 1614,-228 1614,-228 1614,-240 1614,-240 1614,-246 1608,-252 1602,-252"/>
<text text-anchor="middle" x="1575" y="-237" font-family="sans" font-size="10.00">run_busco</text>
<text text-anchor="middle" x="1575" y="-226" font-family="sans" font-size="10.00">id: SAP2.064</text>
</g>
<!-- 19&#45;&gt;2 -->
<g id="edge20" class="edge">
<title>19&#45;&gt;2</title>
<path fill="none" stroke="grey" stroke-width="2" d="M1614.02,-218.07C1617.03,-217.26 1620.05,-216.55 1623,-216 1788.73,-184.9 2995.05,-167.56 3287.34,-163.79"/>
<polygon fill="grey" stroke="grey" stroke-width="2" points="3287.8,-167.28 3297.76,-163.65 3287.71,-160.28 3287.8,-167.28"/>
</g>
<!-- 20 -->
<g id="node21" class="node">
<title>20</title>
<path fill="none" stroke="#56a9d8" stroke-width="2" stroke-dasharray="5,2" d="M1698,-252C1698,-252 1644,-252 1644,-252 1638,-252 1632,-246 1632,-240 1632,-240 1632,-228 1632,-228 1632,-222 1638,-216 1644,-216 1644,-216 1698,-216 1698,-216 1704,-216 1710,-222 1710,-228 1710,-228 1710,-240 1710,-240 1710,-246 1704,-252 1698,-252"/>
<text text-anchor="middle" x="1671" y="-237" font-family="sans" font-size="10.00">run_busco</text>
<text text-anchor="middle" x="1671" y="-226" font-family="sans" font-size="10.00">id: SAP2.037</text>
</g>
<!-- 20&#45;&gt;2 -->
<g id="edge21" class="edge">
<title>20&#45;&gt;2</title>
<path fill="none" stroke="grey" stroke-width="2" d="M1710.02,-218.08C1713.03,-217.27 1716.05,-216.56 1719,-216 1874.9,-186.59 3006.07,-168.09 3287.65,-163.91"/>
<polygon fill="grey" stroke="grey" stroke-width="2" points="3287.75,-167.41 3297.7,-163.76 3287.65,-160.41 3287.75,-167.41"/>
</g>
<!-- 21 -->
<g id="node22" class="node">
<title>21</title>
<path fill="none" stroke="#56a9d8" stroke-width="2" stroke-dasharray="5,2" d="M1794,-252C1794,-252 1740,-252 1740,-252 1734,-252 1728,-246 1728,-240 1728,-240 1728,-228 1728,-228 1728,-222 1734,-216 1740,-216 1740,-216 1794,-216 1794,-216 1800,-216 1806,-222 1806,-228 1806,-228 1806,-240 1806,-240 1806,-246 1800,-252 1794,-252"/>
<text text-anchor="middle" x="1767" y="-237" font-family="sans" font-size="10.00">run_busco</text>
<text text-anchor="middle" x="1767" y="-226" font-family="sans" font-size="10.00">id: SAP2.048</text>
</g>
<!-- 21&#45;&gt;2 -->
<g id="edge22" class="edge">
<title>21&#45;&gt;2</title>
<path fill="none" stroke="grey" stroke-width="2" d="M1806.02,-218.08C1809.03,-217.27 1812.05,-216.56 1815,-216 2104.27,-161.14 3036.31,-161.48 3287.91,-162.62"/>
<polygon fill="grey" stroke="grey" stroke-width="2" points="3287.96,-166.12 3297.98,-162.66 3287.99,-159.12 3287.96,-166.12"/>
</g>
<!-- 22 -->
<g id="node23" class="node">
<title>22</title>
<path fill="none" stroke="#56a9d8" stroke-width="2" stroke-dasharray="5,2" d="M1890,-252C1890,-252 1836,-252 1836,-252 1830,-252 1824,-246 1824,-240 1824,-240 1824,-228 1824,-228 1824,-222 1830,-216 1836,-216 1836,-216 1890,-216 1890,-216 1896,-216 1902,-222 1902,-228 1902,-228 1902,-240 1902,-240 1902,-246 1896,-252 1890,-252"/>
<text text-anchor="middle" x="1863" y="-237" font-family="sans" font-size="10.00">run_busco</text>
<text text-anchor="middle" x="1863" y="-226" font-family="sans" font-size="10.00">id: SAP2.066</text>
</g>
<!-- 22&#45;&gt;2 -->
<g id="edge23" class="edge">
<title>22&#45;&gt;2</title>
<path fill="none" stroke="grey" stroke-width="2" d="M1902.02,-218.09C1905.03,-217.28 1908.05,-216.56 1911,-216 2180.66,-164.53 3046.34,-162.36 3287.89,-162.79"/>
<polygon fill="grey" stroke="grey" stroke-width="2" points="3287.9,-166.29 3297.9,-162.81 3287.91,-159.29 3287.9,-166.29"/>
</g>
<!-- 23 -->
<g id="node24" class="node">
<title>23</title>
<path fill="none" stroke="#56a9d8" stroke-width="2" stroke-dasharray="5,2" d="M1986,-252C1986,-252 1932,-252 1932,-252 1926,-252 1920,-246 1920,-240 1920,-240 1920,-228 1920,-228 1920,-222 1926,-216 1932,-216 1932,-216 1986,-216 1986,-216 1992,-216 1998,-222 1998,-228 1998,-228 1998,-240 1998,-240 1998,-246 1992,-252 1986,-252"/>
<text text-anchor="middle" x="1959" y="-237" font-family="sans" font-size="10.00">run_busco</text>
<text text-anchor="middle" x="1959" y="-226" font-family="sans" font-size="10.00">id: SAP2.039</text>
</g>
<!-- 23&#45;&gt;2 -->
<g id="edge24" class="edge">
<title>23&#45;&gt;2</title>
<path fill="none" stroke="grey" stroke-width="2" d="M1998.03,-218.1C2001.03,-217.28 2004.05,-216.57 2007,-216 2256.98,-167.95 3056,-163.3 3287.55,-162.98"/>
<polygon fill="grey" stroke="grey" stroke-width="2" points="3287.83,-166.48 3297.82,-162.97 3287.82,-159.48 3287.83,-166.48"/>
</g>
<!-- 24 -->
<g id="node25" class="node">
<title>24</title>
<path fill="none" stroke="#56a9d8" stroke-width="2" stroke-dasharray="5,2" d="M2082,-252C2082,-252 2028,-252 2028,-252 2022,-252 2016,-246 2016,-240 2016,-240 2016,-228 2016,-228 2016,-222 2022,-216 2028,-216 2028,-216 2082,-216 2082,-216 2088,-216 2094,-222 2094,-228 2094,-228 2094,-240 2094,-240 2094,-246 2088,-252 2082,-252"/>
<text text-anchor="middle" x="2055" y="-237" font-family="sans" font-size="10.00">run_busco</text>
<text text-anchor="middle" x="2055" y="-226" font-family="sans" font-size="10.00">id: SAP2.057</text>
</g>
<!-- 24&#45;&gt;2 -->
<g id="edge25" class="edge">
<title>24&#45;&gt;2</title>
<path fill="none" stroke="grey" stroke-width="2" d="M2094.03,-218.11C2097.04,-217.29 2100.05,-216.57 2103,-216 2333.53,-171.33 3067.13,-164.31 3287.69,-163.21"/>
<polygon fill="grey" stroke="grey" stroke-width="2" points="3287.81,-166.7 3297.8,-163.16 3287.78,-159.7 3287.81,-166.7"/>
</g>
<!-- 25 -->
<g id="node26" class="node">
<title>25</title>
<path fill="none" stroke="#56a9d8" stroke-width="2" stroke-dasharray="5,2" d="M2178,-252C2178,-252 2124,-252 2124,-252 2118,-252 2112,-246 2112,-240 2112,-240 2112,-228 2112,-228 2112,-222 2118,-216 2124,-216 2124,-216 2178,-216 2178,-216 2184,-216 2190,-222 2190,-228 2190,-228 2190,-240 2190,-240 2190,-246 2184,-252 2178,-252"/>
<text text-anchor="middle" x="2151" y="-237" font-family="sans" font-size="10.00">run_busco</text>
<text text-anchor="middle" x="2151" y="-226" font-family="sans" font-size="10.00">id: SAP2.002</text>
</g>
<!-- 25&#45;&gt;2 -->
<g id="edge26" class="edge">
<title>25&#45;&gt;2</title>
<path fill="none" stroke="grey" stroke-width="2" d="M2190.03,-218.12C2193.04,-217.3 2196.05,-216.58 2199,-216 2410.1,-174.71 3078.41,-165.39 3287.7,-163.47"/>
<polygon fill="grey" stroke="grey" stroke-width="2" points="3287.93,-166.96 3297.9,-163.38 3287.87,-159.97 3287.93,-166.96"/>
</g>
<!-- 26 -->
<g id="node27" class="node">
<title>26</title>
<path fill="none" stroke="#56a9d8" stroke-width="2" stroke-dasharray="5,2" d="M2274,-252C2274,-252 2220,-252 2220,-252 2214,-252 2208,-246 2208,-240 2208,-240 2208,-228 2208,-228 2208,-222 2214,-216 2220,-216 2220,-216 2274,-216 2274,-216 2280,-216 2286,-222 2286,-228 2286,-228 2286,-240 2286,-240 2286,-246 2280,-252 2274,-252"/>
<text text-anchor="middle" x="2247" y="-237" font-family="sans" font-size="10.00">run_busco</text>
<text text-anchor="middle" x="2247" y="-226" font-family="sans" font-size="10.00">id: SAP2.011</text>
</g>
<!-- 26&#45;&gt;2 -->
<g id="edge27" class="edge">
<title>26&#45;&gt;2</title>
<path fill="none" stroke="grey" stroke-width="2" d="M2286.03,-218.14C2289.04,-217.31 2292.05,-216.58 2295,-216 2486.73,-178.08 3090.13,-166.57 3287.69,-163.78"/>
<polygon fill="grey" stroke="grey" stroke-width="2" points="3287.95,-167.27 3297.9,-163.63 3287.86,-160.27 3287.95,-167.27"/>
</g>
<!-- 27 -->
<g id="node28" class="node">
<title>27</title>
<path fill="none" stroke="#56a9d8" stroke-width="2" stroke-dasharray="5,2" d="M2370,-252C2370,-252 2316,-252 2316,-252 2310,-252 2304,-246 2304,-240 2304,-240 2304,-228 2304,-228 2304,-222 2310,-216 2316,-216 2316,-216 2370,-216 2370,-216 2376,-216 2382,-222 2382,-228 2382,-228 2382,-240 2382,-240 2382,-246 2376,-252 2370,-252"/>
<text text-anchor="middle" x="2343" y="-237" font-family="sans" font-size="10.00">run_busco</text>
<text text-anchor="middle" x="2343" y="-226" font-family="sans" font-size="10.00">id: SAP2.004</text>
</g>
<!-- 27&#45;&gt;2 -->
<g id="edge28" class="edge">
<title>27&#45;&gt;2</title>
<path fill="none" stroke="grey" stroke-width="2" d="M2382.04,-218.15C2385.04,-217.32 2388.05,-216.59 2391,-216 2563.48,-181.44 3102.67,-167.86 3287.83,-164.14"/>
<polygon fill="grey" stroke="grey" stroke-width="2" points="3288.02,-167.64 3297.95,-163.94 3287.88,-160.64 3288.02,-167.64"/>
</g>
<!-- 28 -->
<g id="node29" class="node">
<title>28</title>
<path fill="none" stroke="#56a9d8" stroke-width="2" stroke-dasharray="5,2" d="M2466,-252C2466,-252 2412,-252 2412,-252 2406,-252 2400,-246 2400,-240 2400,-240 2400,-228 2400,-228 2400,-222 2406,-216 2412,-216 2412,-216 2466,-216 2466,-216 2472,-216 2478,-222 2478,-228 2478,-228 2478,-240 2478,-240 2478,-246 2472,-252 2466,-252"/>
<text text-anchor="middle" x="2439" y="-237" font-family="sans" font-size="10.00">run_busco</text>
<text text-anchor="middle" x="2439" y="-226" font-family="sans" font-size="10.00">id: SAP2.040</text>
</g>
<!-- 28&#45;&gt;2 -->
<g id="edge29" class="edge">
<title>28&#45;&gt;2</title>
<path fill="none" stroke="grey" stroke-width="2" d="M2478.04,-218.17C2481.04,-217.34 2484.05,-216.6 2487,-216 2640.24,-184.8 3115.37,-169.3 3287.73,-164.59"/>
<polygon fill="grey" stroke="grey" stroke-width="2" points="3288,-168.09 3297.9,-164.32 3287.81,-161.09 3288,-168.09"/>
</g>
<!-- 29 -->
<g id="node30" class="node">
<title>29</title>
<path fill="none" stroke="#56a9d8" stroke-width="2" stroke-dasharray="5,2" d="M2562,-252C2562,-252 2508,-252 2508,-252 2502,-252 2496,-246 2496,-240 2496,-240 2496,-228 2496,-228 2496,-222 2502,-216 2508,-216 2508,-216 2562,-216 2562,-216 2568,-216 2574,-222 2574,-228 2574,-228 2574,-240 2574,-240 2574,-246 2568,-252 2562,-252"/>
<text text-anchor="middle" x="2535" y="-237" font-family="sans" font-size="10.00">run_busco</text>
<text text-anchor="middle" x="2535" y="-226" font-family="sans" font-size="10.00">id: SAP2.022</text>
</g>
<!-- 29&#45;&gt;2 -->
<g id="edge30" class="edge">
<title>29&#45;&gt;2</title>
<path fill="none" stroke="grey" stroke-width="2" d="M2574.05,-218.2C2577.05,-217.36 2580.06,-216.61 2583,-216 2717.13,-188.16 3128.92,-170.92 3287.67,-165.16"/>
<polygon fill="grey" stroke="grey" stroke-width="2" points="3287.89,-168.65 3297.76,-164.79 3287.64,-161.66 3287.89,-168.65"/>
</g>
<!-- 30 -->
<g id="node31" class="node">
<title>30</title>
<path fill="none" stroke="#56a9d8" stroke-width="2" stroke-dasharray="5,2" d="M2658,-252C2658,-252 2604,-252 2604,-252 2598,-252 2592,-246 2592,-240 2592,-240 2592,-228 2592,-228 2592,-222 2598,-216 2604,-216 2604,-216 2658,-216 2658,-216 2664,-216 2670,-222 2670,-228 2670,-228 2670,-240 2670,-240 2670,-246 2664,-252 2658,-252"/>
<text text-anchor="middle" x="2631" y="-237" font-family="sans" font-size="10.00">run_busco</text>
<text text-anchor="middle" x="2631" y="-226" font-family="sans" font-size="10.00">id: SAP2.013</text>
</g>
<!-- 30&#45;&gt;2 -->
<g id="edge31" class="edge">
<title>30&#45;&gt;2</title>
<path fill="none" stroke="grey" stroke-width="2" d="M2670.05,-218.23C2673.05,-217.38 2676.06,-216.63 2679,-216 2898.95,-169.22 3167.31,-162.81 3287.49,-162.52"/>
<polygon fill="grey" stroke="grey" stroke-width="2" points="3287.62,-166.02 3297.62,-162.51 3287.61,-159.02 3287.62,-166.02"/>
</g>
<!-- 31 -->
<g id="node32" class="node">
<title>31</title>
<path fill="none" stroke="#56a9d8" stroke-width="2" stroke-dasharray="5,2" d="M2754,-252C2754,-252 2700,-252 2700,-252 2694,-252 2688,-246 2688,-240 2688,-240 2688,-228 2688,-228 2688,-222 2694,-216 2700,-216 2700,-216 2754,-216 2754,-216 2760,-216 2766,-222 2766,-228 2766,-228 2766,-240 2766,-240 2766,-246 2760,-252 2754,-252"/>
<text text-anchor="middle" x="2727" y="-237" font-family="sans" font-size="10.00">run_busco</text>
<text text-anchor="middle" x="2727" y="-226" font-family="sans" font-size="10.00">id: SAP2.044</text>
</g>
<!-- 31&#45;&gt;2 -->
<g id="edge32" class="edge">
<title>31&#45;&gt;2</title>
<path fill="none" stroke="grey" stroke-width="2" d="M2766.06,-218.27C2769.06,-217.42 2772.06,-216.64 2775,-216 2958.21,-175.79 3180.7,-166.04 3287.62,-163.71"/>
<polygon fill="grey" stroke="grey" stroke-width="2" points="3287.99,-167.2 3297.91,-163.5 3287.84,-160.2 3287.99,-167.2"/>
</g>
<!-- 32 -->
<g id="node33" class="node">
<title>32</title>
<path fill="none" stroke="#56a9d8" stroke-width="2" stroke-dasharray="5,2" d="M2850,-252C2850,-252 2796,-252 2796,-252 2790,-252 2784,-246 2784,-240 2784,-240 2784,-228 2784,-228 2784,-222 2790,-216 2796,-216 2796,-216 2850,-216 2850,-216 2856,-216 2862,-222 2862,-228 2862,-228 2862,-240 2862,-240 2862,-246 2856,-252 2850,-252"/>
<text text-anchor="middle" x="2823" y="-237" font-family="sans" font-size="10.00">run_busco</text>
<text text-anchor="middle" x="2823" y="-226" font-family="sans" font-size="10.00">id: SAP2.008</text>
</g>
<!-- 32&#45;&gt;2 -->
<g id="edge33" class="edge">
<title>32&#45;&gt;2</title>
<path fill="none" stroke="grey" stroke-width="2" d="M2862.07,-218.33C2865.07,-217.46 2868.07,-216.67 2871,-216 3017.91,-182.35 3195.18,-169.82 3287.73,-165.35"/>
<polygon fill="grey" stroke="grey" stroke-width="2" points="3287.95,-168.84 3297.78,-164.88 3287.62,-161.85 3287.95,-168.84"/>
</g>
<!-- 33 -->
<g id="node34" class="node">
<title>33</title>
<path fill="none" stroke="#56a9d8" stroke-width="2" stroke-dasharray="5,2" d="M2946,-252C2946,-252 2892,-252 2892,-252 2886,-252 2880,-246 2880,-240 2880,-240 2880,-228 2880,-228 2880,-222 2886,-216 2892,-216 2892,-216 2946,-216 2946,-216 2952,-216 2958,-222 2958,-228 2958,-228 2958,-240 2958,-240 2958,-246 2952,-252 2946,-252"/>
<text text-anchor="middle" x="2919" y="-237" font-family="sans" font-size="10.00">run_busco</text>
<text text-anchor="middle" x="2919" y="-226" font-family="sans" font-size="10.00">id: SAP2.062</text>
</g>
<!-- 33&#45;&gt;2 -->
<g id="edge34" class="edge">
<title>33&#45;&gt;2</title>
<path fill="none" stroke="grey" stroke-width="2" d="M2958.1,-218.42C2961.09,-217.53 2964.08,-216.71 2967,-216 3078.24,-188.92 3211.2,-174.43 3287.9,-167.75"/>
<polygon fill="grey" stroke="grey" stroke-width="2" points="3288.21,-171.24 3297.88,-166.9 3287.62,-164.26 3288.21,-171.24"/>
</g>
<!-- 34 -->
<g id="node35" class="node">
<title>34</title>
<path fill="none" stroke="#56a9d8" stroke-width="2" stroke-dasharray="5,2" d="M3042,-252C3042,-252 2988,-252 2988,-252 2982,-252 2976,-246 2976,-240 2976,-240 2976,-228 2976,-228 2976,-222 2982,-216 2988,-216 2988,-216 3042,-216 3042,-216 3048,-216 3054,-222 3054,-228 3054,-228 3054,-240 3054,-240 3054,-246 3048,-252 3042,-252"/>
<text text-anchor="middle" x="3015" y="-237" font-family="sans" font-size="10.00">run_busco</text>
<text text-anchor="middle" x="3015" y="-226" font-family="sans" font-size="10.00">id: SAP2.026</text>
</g>
<!-- 34&#45;&gt;2 -->
<g id="edge35" class="edge">
<title>34&#45;&gt;2</title>
<path fill="none" stroke="grey" stroke-width="2" d="M3054.13,-218.57C3057.12,-217.65 3060.1,-216.78 3063,-216 3139.22,-195.63 3228.86,-180.48 3287.64,-171.71"/>
<polygon fill="grey" stroke="grey" stroke-width="2" points="3288.51,-175.12 3297.89,-170.2 3287.49,-168.19 3288.51,-175.12"/>
</g>
<!-- 35 -->
<g id="node36" class="node">
<title>35</title>
<path fill="none" stroke="#56a9d8" stroke-width="2" stroke-dasharray="5,2" d="M3138,-252C3138,-252 3084,-252 3084,-252 3078,-252 3072,-246 3072,-240 3072,-240 3072,-228 3072,-228 3072,-222 3078,-216 3084,-216 3084,-216 3138,-216 3138,-216 3144,-216 3150,-222 3150,-228 3150,-228 3150,-240 3150,-240 3150,-246 3144,-252 3138,-252"/>
<text text-anchor="middle" x="3111" y="-237" font-family="sans" font-size="10.00">run_busco</text>
<text text-anchor="middle" x="3111" y="-226" font-family="sans" font-size="10.00">id: SAP2.031</text>
</g>
<!-- 35&#45;&gt;2 -->
<g id="edge36" class="edge">
<title>35&#45;&gt;2</title>
<path fill="none" stroke="grey" stroke-width="2" d="M3150.22,-218.86C3153.18,-217.86 3156.13,-216.9 3159,-216 3201.69,-202.57 3250.3,-189.17 3287.92,-179.2"/>
<polygon fill="grey" stroke="grey" stroke-width="2" points="3288.95,-182.55 3297.73,-176.62 3287.17,-175.78 3288.95,-182.55"/>
</g>
<!-- 36 -->
<g id="node37" class="node">
<title>36</title>
<path fill="none" stroke="#56a9d8" stroke-width="2" stroke-dasharray="5,2" d="M3234,-252C3234,-252 3180,-252 3180,-252 3174,-252 3168,-246 3168,-240 3168,-240 3168,-228 3168,-228 3168,-222 3174,-216 3180,-216 3180,-216 3234,-216 3234,-216 3240,-216 3246,-222 3246,-228 3246,-228 3246,-240 3246,-240 3246,-246 3240,-252 3234,-252"/>
<text text-anchor="middle" x="3207" y="-237" font-family="sans" font-size="10.00">run_busco</text>
<text text-anchor="middle" x="3207" y="-226" font-family="sans" font-size="10.00">id: SAP2.053</text>
</g>
<!-- 36&#45;&gt;2 -->
<g id="edge37" class="edge">
<title>36&#45;&gt;2</title>
<path fill="none" stroke="grey" stroke-width="2" d="M3242.23,-215.88C3261.58,-206.47 3285.77,-194.71 3306.43,-184.67"/>
<polygon fill="grey" stroke="grey" stroke-width="2" points="3308.17,-187.71 3315.64,-180.19 3305.11,-181.41 3308.17,-187.71"/>
</g>
<!-- 37 -->
<g id="node38" class="node">
<title>37</title>
<path fill="none" stroke="#56a9d8" stroke-width="2" stroke-dasharray="5,2" d="M3330,-252C3330,-252 3276,-252 3276,-252 3270,-252 3264,-246 3264,-240 3264,-240 3264,-228 3264,-228 3264,-222 3270,-216 3276,-216 3276,-216 3330,-216 3330,-216 3336,-216 3342,-222 3342,-228 3342,-228 3342,-240 3342,-240 3342,-246 3336,-252 3330,-252"/>
<text text-anchor="middle" x="3303" y="-237" font-family="sans" font-size="10.00">run_busco</text>
<text text-anchor="middle" x="3303" y="-226" font-family="sans" font-size="10.00">id: SAP2.017</text>
</g>
<!-- 37&#45;&gt;2 -->
<g id="edge38" class="edge">
<title>37&#45;&gt;2</title>
<path fill="none" stroke="grey" stroke-width="2" d="M3314.87,-215.7C3320.5,-207.47 3327.35,-197.48 3333.57,-188.42"/>
<polygon fill="grey" stroke="grey" stroke-width="2" points="3336.5,-190.33 3339.27,-180.1 3330.73,-186.37 3336.5,-190.33"/>
</g>
<!-- 38 -->
<g id="node39" class="node">
<title>38</title>
<path fill="none" stroke="#56a9d8" stroke-width="2" stroke-dasharray="5,2" d="M3426,-252C3426,-252 3372,-252 3372,-252 3366,-252 3360,-246 3360,-240 3360,-240 3360,-228 3360,-228 3360,-222 3366,-216 3372,-216 3372,-216 3426,-216 3426,-216 3432,-216 3438,-222 3438,-228 3438,-228 3438,-240 3438,-240 3438,-246 3432,-252 3426,-252"/>
<text text-anchor="middle" x="3399" y="-237" font-family="sans" font-size="10.00">run_busco</text>
<text text-anchor="middle" x="3399" y="-226" font-family="sans" font-size="10.00">id: SAP2.035</text>
</g>
<!-- 38&#45;&gt;2 -->
<g id="edge39" class="edge">
<title>38&#45;&gt;2</title>
<path fill="none" stroke="grey" stroke-width="2" d="M3387.13,-215.7C3381.5,-207.47 3374.65,-197.48 3368.43,-188.42"/>
<polygon fill="grey" stroke="grey" stroke-width="2" points="3371.27,-186.37 3362.73,-180.1 3365.5,-190.33 3371.27,-186.37"/>
</g>
<!-- 39 -->
<g id="node40" class="node">
<title>39</title>
<path fill="none" stroke="#56a9d8" stroke-width="2" stroke-dasharray="5,2" d="M3522,-252C3522,-252 3468,-252 3468,-252 3462,-252 3456,-246 3456,-240 3456,-240 3456,-228 3456,-228 3456,-222 3462,-216 3468,-216 3468,-216 3522,-216 3522,-216 3528,-216 3534,-222 3534,-228 3534,-228 3534,-240 3534,-240 3534,-246 3528,-252 3522,-252"/>
<text text-anchor="middle" x="3495" y="-237" font-family="sans" font-size="10.00">run_busco</text>
<text text-anchor="middle" x="3495" y="-226" font-family="sans" font-size="10.00">id: SAP2.049</text>
</g>
<!-- 39&#45;&gt;2 -->
<g id="edge40" class="edge">
<title>39&#45;&gt;2</title>
<path fill="none" stroke="grey" stroke-width="2" d="M3459.77,-215.88C3440.42,-206.47 3416.23,-194.71 3395.57,-184.67"/>
<polygon fill="grey" stroke="grey" stroke-width="2" points="3396.89,-181.41 3386.36,-180.19 3393.83,-187.71 3396.89,-181.41"/>
</g>
<!-- 40 -->
<g id="node41" class="node">
<title>40</title>
<path fill="none" stroke="#56a9d8" stroke-width="2" stroke-dasharray="5,2" d="M3618,-252C3618,-252 3564,-252 3564,-252 3558,-252 3552,-246 3552,-240 3552,-240 3552,-228 3552,-228 3552,-222 3558,-216 3564,-216 3564,-216 3618,-216 3618,-216 3624,-216 3630,-222 3630,-228 3630,-228 3630,-240 3630,-240 3630,-246 3624,-252 3618,-252"/>
<text text-anchor="middle" x="3591" y="-237" font-family="sans" font-size="10.00">run_busco</text>
<text text-anchor="middle" x="3591" y="-226" font-family="sans" font-size="10.00">id: SAP2.058</text>
</g>
<!-- 40&#45;&gt;2 -->
<g id="edge41" class="edge">
<title>40&#45;&gt;2</title>
<path fill="none" stroke="grey" stroke-width="2" d="M3551.78,-218.86C3548.82,-217.86 3545.87,-216.9 3543,-216 3500.31,-202.57 3451.7,-189.17 3414.08,-179.2"/>
<polygon fill="grey" stroke="grey" stroke-width="2" points="3414.83,-175.78 3404.27,-176.62 3413.05,-182.55 3414.83,-175.78"/>
</g>
<!-- 41 -->
<g id="node42" class="node">
<title>41</title>
<path fill="none" stroke="#56a9d8" stroke-width="2" stroke-dasharray="5,2" d="M3714,-252C3714,-252 3660,-252 3660,-252 3654,-252 3648,-246 3648,-240 3648,-240 3648,-228 3648,-228 3648,-222 3654,-216 3660,-216 3660,-216 3714,-216 3714,-216 3720,-216 3726,-222 3726,-228 3726,-228 3726,-240 3726,-240 3726,-246 3720,-252 3714,-252"/>
<text text-anchor="middle" x="3687" y="-237" font-family="sans" font-size="10.00">run_busco</text>
<text text-anchor="middle" x="3687" y="-226" font-family="sans" font-size="10.00">id: SAP2.067</text>
</g>
<!-- 41&#45;&gt;2 -->
<g id="edge42" class="edge">
<title>41&#45;&gt;2</title>
<path fill="none" stroke="grey" stroke-width="2" d="M3647.87,-218.57C3644.88,-217.65 3641.9,-216.78 3639,-216 3562.78,-195.63 3473.14,-180.48 3414.36,-171.71"/>
<polygon fill="grey" stroke="grey" stroke-width="2" points="3414.51,-168.19 3404.11,-170.2 3413.49,-175.12 3414.51,-168.19"/>
</g>
<!-- 42 -->
<g id="node43" class="node">
<title>42</title>
<path fill="none" stroke="#56a9d8" stroke-width="2" stroke-dasharray="5,2" d="M3810,-252C3810,-252 3756,-252 3756,-252 3750,-252 3744,-246 3744,-240 3744,-240 3744,-228 3744,-228 3744,-222 3750,-216 3756,-216 3756,-216 3810,-216 3810,-216 3816,-216 3822,-222 3822,-228 3822,-228 3822,-240 3822,-240 3822,-246 3816,-252 3810,-252"/>
<text text-anchor="middle" x="3783" y="-237" font-family="sans" font-size="10.00">run_busco</text>
<text text-anchor="middle" x="3783" y="-226" font-family="sans" font-size="10.00">id: SAP2.005</text>
</g>
<!-- 42&#45;&gt;2 -->
<g id="edge43" class="edge">
<title>42&#45;&gt;2</title>
<path fill="none" stroke="grey" stroke-width="2" d="M3743.9,-218.42C3740.91,-217.53 3737.92,-216.71 3735,-216 3623.76,-188.92 3490.8,-174.43 3414.1,-167.75"/>
<polygon fill="grey" stroke="grey" stroke-width="2" points="3414.38,-164.26 3404.12,-166.9 3413.79,-171.24 3414.38,-164.26"/>
</g>
<!-- 43 -->
<g id="node44" class="node">
<title>43</title>
<path fill="none" stroke="#56a9d8" stroke-width="2" stroke-dasharray="5,2" d="M3906,-252C3906,-252 3852,-252 3852,-252 3846,-252 3840,-246 3840,-240 3840,-240 3840,-228 3840,-228 3840,-222 3846,-216 3852,-216 3852,-216 3906,-216 3906,-216 3912,-216 3918,-222 3918,-228 3918,-228 3918,-240 3918,-240 3918,-246 3912,-252 3906,-252"/>
<text text-anchor="middle" x="3879" y="-237" font-family="sans" font-size="10.00">run_busco</text>
<text text-anchor="middle" x="3879" y="-226" font-family="sans" font-size="10.00">id: SAP2.041</text>
</g>
<!-- 43&#45;&gt;2 -->
<g id="edge44" class="edge">
<title>43&#45;&gt;2</title>
<path fill="none" stroke="grey" stroke-width="2" d="M3839.93,-218.33C3836.93,-217.46 3833.93,-216.67 3831,-216 3684.09,-182.35 3506.82,-169.82 3414.27,-165.35"/>
<polygon fill="grey" stroke="grey" stroke-width="2" points="3414.38,-161.85 3404.22,-164.88 3414.05,-168.84 3414.38,-161.85"/>
</g>
<!-- 44 -->
<g id="node45" class="node">
<title>44</title>
<path fill="none" stroke="#56a9d8" stroke-width="2" stroke-dasharray="5,2" d="M4002,-252C4002,-252 3948,-252 3948,-252 3942,-252 3936,-246 3936,-240 3936,-240 3936,-228 3936,-228 3936,-222 3942,-216 3948,-216 3948,-216 4002,-216 4002,-216 4008,-216 4014,-222 4014,-228 4014,-228 4014,-240 4014,-240 4014,-246 4008,-252 4002,-252"/>
<text text-anchor="middle" x="3975" y="-237" font-family="sans" font-size="10.00">run_busco</text>
<text text-anchor="middle" x="3975" y="-226" font-family="sans" font-size="10.00">id: SAP2.023</text>
</g>
<!-- 44&#45;&gt;2 -->
<g id="edge45" class="edge">
<title>44&#45;&gt;2</title>
<path fill="none" stroke="grey" stroke-width="2" d="M3935.94,-218.27C3932.94,-217.42 3929.94,-216.64 3927,-216 3743.79,-175.79 3521.3,-166.04 3414.38,-163.71"/>
<polygon fill="grey" stroke="grey" stroke-width="2" points="3414.16,-160.2 3404.09,-163.5 3414.01,-167.2 3414.16,-160.2"/>
</g>
<!-- 45 -->
<g id="node46" class="node">
<title>45</title>
<path fill="none" stroke="#56a9d8" stroke-width="2" stroke-dasharray="5,2" d="M4098,-252C4098,-252 4044,-252 4044,-252 4038,-252 4032,-246 4032,-240 4032,-240 4032,-228 4032,-228 4032,-222 4038,-216 4044,-216 4044,-216 4098,-216 4098,-216 4104,-216 4110,-222 4110,-228 4110,-228 4110,-240 4110,-240 4110,-246 4104,-252 4098,-252"/>
<text text-anchor="middle" x="4071" y="-237" font-family="sans" font-size="10.00">run_busco</text>
<text text-anchor="middle" x="4071" y="-226" font-family="sans" font-size="10.00">id: SAP2.027</text>
</g>
<!-- 45&#45;&gt;2 -->
<g id="edge46" class="edge">
<title>45&#45;&gt;2</title>
<path fill="none" stroke="grey" stroke-width="2" d="M4031.95,-218.23C4028.95,-217.38 4025.94,-216.63 4023,-216 3803.05,-169.22 3534.69,-162.81 3414.51,-162.52"/>
<polygon fill="grey" stroke="grey" stroke-width="2" points="3414.39,-159.02 3404.38,-162.51 3414.38,-166.02 3414.39,-159.02"/>
</g>
<!-- 46 -->
<g id="node47" class="node">
<title>46</title>
<path fill="none" stroke="#56a9d8" stroke-width="2" stroke-dasharray="5,2" d="M4194,-252C4194,-252 4140,-252 4140,-252 4134,-252 4128,-246 4128,-240 4128,-240 4128,-228 4128,-228 4128,-222 4134,-216 4140,-216 4140,-216 4194,-216 4194,-216 4200,-216 4206,-222 4206,-228 4206,-228 4206,-240 4206,-240 4206,-246 4200,-252 4194,-252"/>
<text text-anchor="middle" x="4167" y="-237" font-family="sans" font-size="10.00">run_busco</text>
<text text-anchor="middle" x="4167" y="-226" font-family="sans" font-size="10.00">id: SAP2.063</text>
</g>
<!-- 46&#45;&gt;2 -->
<g id="edge47" class="edge">
<title>46&#45;&gt;2</title>
<path fill="none" stroke="grey" stroke-width="2" d="M4127.95,-218.2C4124.95,-217.36 4121.94,-216.61 4119,-216 3984.87,-188.16 3573.08,-170.92 3414.33,-165.16"/>
<polygon fill="grey" stroke="grey" stroke-width="2" points="3414.36,-161.66 3404.24,-164.79 3414.11,-168.65 3414.36,-161.66"/>
</g>
<!-- 47 -->
<g id="node48" class="node">
<title>47</title>
<path fill="none" stroke="#56a9d8" stroke-width="2" stroke-dasharray="5,2" d="M4290,-252C4290,-252 4236,-252 4236,-252 4230,-252 4224,-246 4224,-240 4224,-240 4224,-228 4224,-228 4224,-222 4230,-216 4236,-216 4236,-216 4290,-216 4290,-216 4296,-216 4302,-222 4302,-228 4302,-228 4302,-240 4302,-240 4302,-246 4296,-252 4290,-252"/>
<text text-anchor="middle" x="4263" y="-237" font-family="sans" font-size="10.00">run_busco</text>
<text text-anchor="middle" x="4263" y="-226" font-family="sans" font-size="10.00">id: SAP2.045</text>
</g>
<!-- 47&#45;&gt;2 -->
<g id="edge48" class="edge">
<title>47&#45;&gt;2</title>
<path fill="none" stroke="grey" stroke-width="2" d="M4223.96,-218.17C4220.96,-217.34 4217.95,-216.6 4215,-216 4061.76,-184.8 3586.63,-169.3 3414.27,-164.59"/>
<polygon fill="grey" stroke="grey" stroke-width="2" points="3414.19,-161.09 3404.1,-164.32 3414,-168.09 3414.19,-161.09"/>
</g>
<!-- 48 -->
<g id="node49" class="node">
<title>48</title>
<path fill="none" stroke="#56a9d8" stroke-width="2" stroke-dasharray="5,2" d="M4386,-252C4386,-252 4332,-252 4332,-252 4326,-252 4320,-246 4320,-240 4320,-240 4320,-228 4320,-228 4320,-222 4326,-216 4332,-216 4332,-216 4386,-216 4386,-216 4392,-216 4398,-222 4398,-228 4398,-228 4398,-240 4398,-240 4398,-246 4392,-252 4386,-252"/>
<text text-anchor="middle" x="4359" y="-237" font-family="sans" font-size="10.00">run_busco</text>
<text text-anchor="middle" x="4359" y="-226" font-family="sans" font-size="10.00">id: SAP2.050</text>
</g>
<!-- 48&#45;&gt;2 -->
<g id="edge49" class="edge">
<title>48&#45;&gt;2</title>
<path fill="none" stroke="grey" stroke-width="2" d="M4319.96,-218.15C4316.96,-217.32 4313.95,-216.59 4311,-216 4138.52,-181.44 3599.33,-167.86 3414.17,-164.14"/>
<polygon fill="grey" stroke="grey" stroke-width="2" points="3414.12,-160.64 3404.05,-163.94 3413.98,-167.64 3414.12,-160.64"/>
</g>
<!-- 49 -->
<g id="node50" class="node">
<title>49</title>
<path fill="none" stroke="#56a9d8" stroke-width="2" stroke-dasharray="5,2" d="M4482,-252C4482,-252 4428,-252 4428,-252 4422,-252 4416,-246 4416,-240 4416,-240 4416,-228 4416,-228 4416,-222 4422,-216 4428,-216 4428,-216 4482,-216 4482,-216 4488,-216 4494,-222 4494,-228 4494,-228 4494,-240 4494,-240 4494,-246 4488,-252 4482,-252"/>
<text text-anchor="middle" x="4455" y="-237" font-family="sans" font-size="10.00">run_busco</text>
<text text-anchor="middle" x="4455" y="-226" font-family="sans" font-size="10.00">id: SAP2.032</text>
</g>
<!-- 49&#45;&gt;2 -->
<g id="edge50" class="edge">
<title>49&#45;&gt;2</title>
<path fill="none" stroke="grey" stroke-width="2" d="M4415.97,-218.14C4412.96,-217.31 4409.95,-216.58 4407,-216 4215.27,-178.08 3611.87,-166.57 3414.31,-163.78"/>
<polygon fill="grey" stroke="grey" stroke-width="2" points="3414.14,-160.27 3404.1,-163.63 3414.05,-167.27 3414.14,-160.27"/>
</g>
<!-- 50 -->
<g id="node51" class="node">
<title>50</title>
<path fill="none" stroke="#56a9d8" stroke-width="2" stroke-dasharray="5,2" d="M4578,-252C4578,-252 4524,-252 4524,-252 4518,-252 4512,-246 4512,-240 4512,-240 4512,-228 4512,-228 4512,-222 4518,-216 4524,-216 4524,-216 4578,-216 4578,-216 4584,-216 4590,-222 4590,-228 4590,-228 4590,-240 4590,-240 4590,-246 4584,-252 4578,-252"/>
<text text-anchor="middle" x="4551" y="-237" font-family="sans" font-size="10.00">run_busco</text>
<text text-anchor="middle" x="4551" y="-226" font-family="sans" font-size="10.00">id: SAP2.009</text>
</g>
<!-- 50&#45;&gt;2 -->
<g id="edge51" class="edge">
<title>50&#45;&gt;2</title>
<path fill="none" stroke="grey" stroke-width="2" d="M4511.97,-218.12C4508.96,-217.3 4505.95,-216.58 4503,-216 4291.9,-174.71 3623.59,-165.39 3414.3,-163.47"/>
<polygon fill="grey" stroke="grey" stroke-width="2" points="3414.13,-159.97 3404.1,-163.38 3414.07,-166.96 3414.13,-159.97"/>
</g>
<!-- 51 -->
<g id="node52" class="node">
<title>51</title>
<path fill="none" stroke="#56a9d8" stroke-width="2" stroke-dasharray="5,2" d="M4674,-252C4674,-252 4620,-252 4620,-252 4614,-252 4608,-246 4608,-240 4608,-240 4608,-228 4608,-228 4608,-222 4614,-216 4620,-216 4620,-216 4674,-216 4674,-216 4680,-216 4686,-222 4686,-228 4686,-228 4686,-240 4686,-240 4686,-246 4680,-252 4674,-252"/>
<text text-anchor="middle" x="4647" y="-237" font-family="sans" font-size="10.00">run_busco</text>
<text text-anchor="middle" x="4647" y="-226" font-family="sans" font-size="10.00">id: SAP2.014</text>
</g>
<!-- 51&#45;&gt;2 -->
<g id="edge52" class="edge">
<title>51&#45;&gt;2</title>
<path fill="none" stroke="grey" stroke-width="2" d="M4607.97,-218.11C4604.96,-217.29 4601.95,-216.57 4599,-216 4368.47,-171.33 3634.87,-164.31 3414.31,-163.21"/>
<polygon fill="grey" stroke="grey" stroke-width="2" points="3414.22,-159.7 3404.2,-163.16 3414.19,-166.7 3414.22,-159.7"/>
</g>
<!-- 52 -->
<g id="node53" class="node">
<title>52</title>
<path fill="none" stroke="#56a9d8" stroke-width="2" stroke-dasharray="5,2" d="M4770,-252C4770,-252 4716,-252 4716,-252 4710,-252 4704,-246 4704,-240 4704,-240 4704,-228 4704,-228 4704,-222 4710,-216 4716,-216 4716,-216 4770,-216 4770,-216 4776,-216 4782,-222 4782,-228 4782,-228 4782,-240 4782,-240 4782,-246 4776,-252 4770,-252"/>
<text text-anchor="middle" x="4743" y="-237" font-family="sans" font-size="10.00">run_busco</text>
<text text-anchor="middle" x="4743" y="-226" font-family="sans" font-size="10.00">id: SAP2.036</text>
</g>
<!-- 52&#45;&gt;2 -->
<g id="edge53" class="edge">
<title>52&#45;&gt;2</title>
<path fill="none" stroke="grey" stroke-width="2" d="M4703.97,-218.1C4700.97,-217.28 4697.95,-216.57 4695,-216 4445.02,-167.95 3646,-163.3 3414.45,-162.98"/>
<polygon fill="grey" stroke="grey" stroke-width="2" points="3414.18,-159.48 3404.18,-162.97 3414.17,-166.48 3414.18,-159.48"/>
</g>
<!-- 53 -->
<g id="node54" class="node">
<title>53</title>
<path fill="none" stroke="#56a9d8" stroke-width="2" stroke-dasharray="5,2" d="M4866,-252C4866,-252 4812,-252 4812,-252 4806,-252 4800,-246 4800,-240 4800,-240 4800,-228 4800,-228 4800,-222 4806,-216 4812,-216 4812,-216 4866,-216 4866,-216 4872,-216 4878,-222 4878,-228 4878,-228 4878,-240 4878,-240 4878,-246 4872,-252 4866,-252"/>
<text text-anchor="middle" x="4839" y="-237" font-family="sans" font-size="10.00">run_busco</text>
<text text-anchor="middle" x="4839" y="-226" font-family="sans" font-size="10.00">id: SAP2.018</text>
</g>
<!-- 53&#45;&gt;2 -->
<g id="edge54" class="edge">
<title>53&#45;&gt;2</title>
<path fill="none" stroke="grey" stroke-width="2" d="M4799.98,-218.09C4796.97,-217.28 4793.95,-216.56 4791,-216 4521.34,-164.53 3655.66,-162.36 3414.11,-162.79"/>
<polygon fill="grey" stroke="grey" stroke-width="2" points="3414.09,-159.29 3404.1,-162.81 3414.1,-166.29 3414.09,-159.29"/>
</g>
<!-- 54 -->
<g id="node55" class="node">
<title>54</title>
<path fill="none" stroke="#56a9d8" stroke-width="2" stroke-dasharray="5,2" d="M4962,-252C4962,-252 4908,-252 4908,-252 4902,-252 4896,-246 4896,-240 4896,-240 4896,-228 4896,-228 4896,-222 4902,-216 4908,-216 4908,-216 4962,-216 4962,-216 4968,-216 4974,-222 4974,-228 4974,-228 4974,-240 4974,-240 4974,-246 4968,-252 4962,-252"/>
<text text-anchor="middle" x="4935" y="-237" font-family="sans" font-size="10.00">run_busco</text>
<text text-anchor="middle" x="4935" y="-226" font-family="sans" font-size="10.00">id: SAP2.054</text>
</g>
<!-- 54&#45;&gt;2 -->
<g id="edge55" class="edge">
<title>54&#45;&gt;2</title>
<path fill="none" stroke="grey" stroke-width="2" d="M4895.98,-218.08C4892.97,-217.27 4889.95,-216.56 4887,-216 4597.73,-161.14 3665.69,-161.48 3414.09,-162.62"/>
<polygon fill="grey" stroke="grey" stroke-width="2" points="3414.01,-159.12 3404.02,-162.66 3414.04,-166.12 3414.01,-159.12"/>
</g>
<!-- 55 -->
<g id="node56" class="node">
<title>55</title>
<path fill="none" stroke="#56a9d8" stroke-width="2" stroke-dasharray="5,2" d="M5058,-252C5058,-252 5004,-252 5004,-252 4998,-252 4992,-246 4992,-240 4992,-240 4992,-228 4992,-228 4992,-222 4998,-216 5004,-216 5004,-216 5058,-216 5058,-216 5064,-216 5070,-222 5070,-228 5070,-228 5070,-240 5070,-240 5070,-246 5064,-252 5058,-252"/>
<text text-anchor="middle" x="5031" y="-237" font-family="sans" font-size="10.00">run_busco</text>
<text text-anchor="middle" x="5031" y="-226" font-family="sans" font-size="10.00">id: SAP2.029</text>
</g>
<!-- 55&#45;&gt;2 -->
<g id="edge56" class="edge">
<title>55&#45;&gt;2</title>
<path fill="none" stroke="grey" stroke-width="2" d="M4991.98,-218.08C4988.97,-217.27 4985.95,-216.56 4983,-216 4827.1,-186.59 3695.93,-168.09 3414.35,-163.91"/>
<polygon fill="grey" stroke="grey" stroke-width="2" points="3414.35,-160.41 3404.3,-163.76 3414.25,-167.41 3414.35,-160.41"/>
</g>
<!-- 56 -->
<g id="node57" class="node">
<title>56</title>
<path fill="none" stroke="#56a9d8" stroke-width="2" stroke-dasharray="5,2" d="M5154,-252C5154,-252 5100,-252 5100,-252 5094,-252 5088,-246 5088,-240 5088,-240 5088,-228 5088,-228 5088,-222 5094,-216 5100,-216 5100,-216 5154,-216 5154,-216 5160,-216 5166,-222 5166,-228 5166,-228 5166,-240 5166,-240 5166,-246 5160,-252 5154,-252"/>
<text text-anchor="middle" x="5127" y="-237" font-family="sans" font-size="10.00">run_busco</text>
<text text-anchor="middle" x="5127" y="-226" font-family="sans" font-size="10.00">id: SAP2.010</text>
</g>
<!-- 56&#45;&gt;2 -->
<g id="edge57" class="edge">
<title>56&#45;&gt;2</title>
<path fill="none" stroke="grey" stroke-width="2" d="M5087.98,-218.07C5084.97,-217.26 5081.95,-216.55 5079,-216 4913.27,-184.9 3706.95,-167.56 3414.66,-163.79"/>
<polygon fill="grey" stroke="grey" stroke-width="2" points="3414.29,-160.28 3404.24,-163.65 3414.2,-167.28 3414.29,-160.28"/>
</g>
<!-- 57 -->
<g id="node58" class="node">
<title>57</title>
<path fill="none" stroke="#56a9d8" stroke-width="2" stroke-dasharray="5,2" d="M5250,-252C5250,-252 5196,-252 5196,-252 5190,-252 5184,-246 5184,-240 5184,-240 5184,-228 5184,-228 5184,-222 5190,-216 5196,-216 5196,-216 5250,-216 5250,-216 5256,-216 5262,-222 5262,-228 5262,-228 5262,-240 5262,-240 5262,-246 5256,-252 5250,-252"/>
<text text-anchor="middle" x="5223" y="-237" font-family="sans" font-size="10.00">run_busco</text>
<text text-anchor="middle" x="5223" y="-226" font-family="sans" font-size="10.00">id: SAP2.065</text>
</g>
<!-- 57&#45;&gt;2 -->
<g id="edge58" class="edge">
<title>57&#45;&gt;2</title>
<path fill="none" stroke="grey" stroke-width="2" d="M5183.98,-218.07C5180.97,-217.26 5177.95,-216.55 5175,-216 4999.38,-183.19 3717.05,-167.05 3414.72,-163.68"/>
<polygon fill="grey" stroke="grey" stroke-width="2" points="3414.42,-160.17 3404.39,-163.56 3414.35,-167.17 3414.42,-160.17"/>
</g>
<!-- 58 -->
<g id="node59" class="node">
<title>58</title>
<path fill="none" stroke="#56a9d8" stroke-width="2" stroke-dasharray="5,2" d="M5346,-252C5346,-252 5292,-252 5292,-252 5286,-252 5280,-246 5280,-240 5280,-240 5280,-228 5280,-228 5280,-222 5286,-216 5292,-216 5292,-216 5346,-216 5346,-216 5352,-216 5358,-222 5358,-228 5358,-228 5358,-240 5358,-240 5358,-246 5352,-252 5346,-252"/>
<text text-anchor="middle" x="5319" y="-237" font-family="sans" font-size="10.00">run_busco</text>
<text text-anchor="middle" x="5319" y="-226" font-family="sans" font-size="10.00">id: SAP2.047</text>
</g>
<!-- 58&#45;&gt;2 -->
<g id="edge59" class="edge">
<title>58&#45;&gt;2</title>
<path fill="none" stroke="grey" stroke-width="2" d="M5279.98,-218.06C5276.97,-217.25 5273.96,-216.55 5271,-216 5085.42,-181.47 3726.08,-166.56 3414.51,-163.58"/>
<polygon fill="grey" stroke="grey" stroke-width="2" points="3414.34,-160.07 3404.3,-163.48 3414.27,-167.07 3414.34,-160.07"/>
</g>
<!-- 59 -->
<g id="node60" class="node">
<title>59</title>
<path fill="none" stroke="#56a9d8" stroke-width="2" stroke-dasharray="5,2" d="M5442,-252C5442,-252 5388,-252 5388,-252 5382,-252 5376,-246 5376,-240 5376,-240 5376,-228 5376,-228 5376,-222 5382,-216 5388,-216 5388,-216 5442,-216 5442,-216 5448,-216 5454,-222 5454,-228 5454,-228 5454,-240 5454,-240 5454,-246 5448,-252 5442,-252"/>
<text text-anchor="middle" x="5415" y="-237" font-family="sans" font-size="10.00">run_busco</text>
<text text-anchor="middle" x="5415" y="-226" font-family="sans" font-size="10.00">id: SAP2.038</text>
</g>
<!-- 59&#45;&gt;2 -->
<g id="edge60" class="edge">
<title>59&#45;&gt;2</title>
<path fill="none" stroke="grey" stroke-width="2" d="M5375.98,-218.06C5372.97,-217.25 5369.96,-216.55 5367,-216 5171.39,-179.73 3734.05,-166.09 3414.03,-163.48"/>
<polygon fill="grey" stroke="grey" stroke-width="2" points="3414.03,-159.98 3404.01,-163.4 3413.98,-166.98 3414.03,-159.98"/>
</g>
<!-- 60 -->
<g id="node61" class="node">
<title>60</title>
<path fill="none" stroke="#56a9d8" stroke-width="2" stroke-dasharray="5,2" d="M5538,-252C5538,-252 5484,-252 5484,-252 5478,-252 5472,-246 5472,-240 5472,-240 5472,-228 5472,-228 5472,-222 5478,-216 5484,-216 5484,-216 5538,-216 5538,-216 5544,-216 5550,-222 5550,-228 5550,-228 5550,-240 5550,-240 5550,-246 5544,-252 5538,-252"/>
<text text-anchor="middle" x="5511" y="-237" font-family="sans" font-size="10.00">run_busco</text>
<text text-anchor="middle" x="5511" y="-226" font-family="sans" font-size="10.00">id: SAP2.056</text>
</g>
<!-- 60&#45;&gt;2 -->
<g id="edge61" class="edge">
<title>60&#45;&gt;2</title>
<path fill="none" stroke="grey" stroke-width="2" d="M5471.98,-218.05C5468.97,-217.25 5465.96,-216.55 5463,-216 5257.51,-178.03 3744.09,-165.66 3414.32,-163.4"/>
<polygon fill="grey" stroke="grey" stroke-width="2" points="3414.03,-159.9 3404,-163.33 3413.98,-166.9 3414.03,-159.9"/>
</g>
<!-- 61 -->
<g id="node62" class="node">
<title>61</title>
<path fill="none" stroke="#56a9d8" stroke-width="2" stroke-dasharray="5,2" d="M5634,-252C5634,-252 5580,-252 5580,-252 5574,-252 5568,-246 5568,-240 5568,-240 5568,-228 5568,-228 5568,-222 5574,-216 5580,-216 5580,-216 5634,-216 5634,-216 5640,-216 5646,-222 5646,-228 5646,-228 5646,-240 5646,-240 5646,-246 5640,-252 5634,-252"/>
<text text-anchor="middle" x="5607" y="-237" font-family="sans" font-size="10.00">run_busco</text>
<text text-anchor="middle" x="5607" y="-226" font-family="sans" font-size="10.00">id: SAP2.030</text>
</g>
<!-- 61&#45;&gt;2 -->
<g id="edge62" class="edge">
<title>61&#45;&gt;2</title>
<path fill="none" stroke="grey" stroke-width="2" d="M5567.98,-218.05C5564.97,-217.24 5561.96,-216.54 5559,-216 5343.52,-176.3 3752.65,-165.24 3414.2,-163.33"/>
<polygon fill="grey" stroke="grey" stroke-width="2" points="3414.1,-159.83 3404.08,-163.27 3414.06,-166.83 3414.1,-159.83"/>
</g>
<!-- 62 -->
<g id="node63" class="node">
<title>62</title>
<path fill="none" stroke="#56a9d8" stroke-width="2" stroke-dasharray="5,2" d="M5730,-252C5730,-252 5676,-252 5676,-252 5670,-252 5664,-246 5664,-240 5664,-240 5664,-228 5664,-228 5664,-222 5670,-216 5676,-216 5676,-216 5730,-216 5730,-216 5736,-216 5742,-222 5742,-228 5742,-228 5742,-240 5742,-240 5742,-246 5736,-252 5730,-252"/>
<text text-anchor="middle" x="5703" y="-237" font-family="sans" font-size="10.00">run_busco</text>
<text text-anchor="middle" x="5703" y="-226" font-family="sans" font-size="10.00">id: SAP2.021</text>
</g>
<!-- 62&#45;&gt;2 -->
<g id="edge63" class="edge">
<title>62&#45;&gt;2</title>
<path fill="none" stroke="grey" stroke-width="2" d="M5663.98,-218.05C5660.97,-217.24 5657.96,-216.54 5655,-216 5429.53,-174.58 3761.19,-164.84 3414.13,-163.26"/>
<polygon fill="grey" stroke="grey" stroke-width="2" points="3414.03,-159.76 3404.01,-163.21 3413.99,-166.76 3414.03,-159.76"/>
</g>
<!-- 63 -->
<g id="node64" class="node">
<title>63</title>
<path fill="none" stroke="#56a9d8" stroke-width="2" stroke-dasharray="5,2" d="M5826,-252C5826,-252 5772,-252 5772,-252 5766,-252 5760,-246 5760,-240 5760,-240 5760,-228 5760,-228 5760,-222 5766,-216 5772,-216 5772,-216 5826,-216 5826,-216 5832,-216 5838,-222 5838,-228 5838,-228 5838,-240 5838,-240 5838,-246 5832,-252 5826,-252"/>
<text text-anchor="middle" x="5799" y="-237" font-family="sans" font-size="10.00">run_busco</text>
<text text-anchor="middle" x="5799" y="-226" font-family="sans" font-size="10.00">id: SAP2.012</text>
</g>
<!-- 63&#45;&gt;2 -->
<g id="edge64" class="edge">
<title>63&#45;&gt;2</title>
<path fill="none" stroke="grey" stroke-width="2" d="M5759.99,-218.04C5756.97,-217.24 5753.96,-216.54 5751,-216 5515.56,-172.86 3769.9,-164.46 3414.17,-163.2"/>
<polygon fill="grey" stroke="grey" stroke-width="2" points="3414.07,-159.7 3404.06,-163.16 3414.04,-166.7 3414.07,-159.7"/>
</g>
<!-- 64 -->
<g id="node65" class="node">
<title>64</title>
<path fill="none" stroke="#56a9d8" stroke-width="2" stroke-dasharray="5,2" d="M5922,-252C5922,-252 5868,-252 5868,-252 5862,-252 5856,-246 5856,-240 5856,-240 5856,-228 5856,-228 5856,-222 5862,-216 5868,-216 5868,-216 5922,-216 5922,-216 5928,-216 5934,-222 5934,-228 5934,-228 5934,-240 5934,-240 5934,-246 5928,-252 5922,-252"/>
<text text-anchor="middle" x="5895" y="-237" font-family="sans" font-size="10.00">run_busco</text>
<text text-anchor="middle" x="5895" y="-226" font-family="sans" font-size="10.00">id: SAP2.025</text>
</g>
<!-- 64&#45;&gt;2 -->
<g id="edge65" class="edge">
<title>64&#45;&gt;2</title>
<path fill="none" stroke="grey" stroke-width="2" d="M5855.99,-218.04C5852.97,-217.24 5849.96,-216.54 5847,-216 5723.91,-193.5 3791.28,-168.46 3414.42,-163.78"/>
<polygon fill="grey" stroke="grey" stroke-width="2" points="3414.29,-160.27 3404.25,-163.65 3414.21,-167.27 3414.29,-160.27"/>
</g>
<!-- 65 -->
<g id="node66" class="node">
<title>65</title>
<path fill="none" stroke="#56a9d8" stroke-width="2" stroke-dasharray="5,2" d="M6018,-252C6018,-252 5964,-252 5964,-252 5958,-252 5952,-246 5952,-240 5952,-240 5952,-228 5952,-228 5952,-222 5958,-216 5964,-216 5964,-216 6018,-216 6018,-216 6024,-216 6030,-222 6030,-228 6030,-228 6030,-240 6030,-240 6030,-246 6024,-252 6018,-252"/>
<text text-anchor="middle" x="5991" y="-237" font-family="sans" font-size="10.00">run_busco</text>
<text text-anchor="middle" x="5991" y="-226" font-family="sans" font-size="10.00">id: SAP2.007</text>
</g>
<!-- 65&#45;&gt;2 -->
<g id="edge66" class="edge">
<title>65&#45;&gt;2</title>
<path fill="none" stroke="grey" stroke-width="2" d="M5951.99,-218.04C5948.98,-217.24 5945.96,-216.54 5943,-216 5814.89,-192.63 3799.68,-168.2 3414.39,-163.72"/>
<polygon fill="grey" stroke="grey" stroke-width="2" points="3414.3,-160.22 3404.26,-163.61 3414.22,-167.22 3414.3,-160.22"/>
</g>
<!-- 66 -->
<g id="node67" class="node">
<title>66</title>
<path fill="none" stroke="#56a9d8" stroke-width="2" stroke-dasharray="5,2" d="M6114,-252C6114,-252 6060,-252 6060,-252 6054,-252 6048,-246 6048,-240 6048,-240 6048,-228 6048,-228 6048,-222 6054,-216 6060,-216 6060,-216 6114,-216 6114,-216 6120,-216 6126,-222 6126,-228 6126,-228 6126,-240 6126,-240 6126,-246 6120,-252 6114,-252"/>
<text text-anchor="middle" x="6087" y="-237" font-family="sans" font-size="10.00">run_busco</text>
<text text-anchor="middle" x="6087" y="-226" font-family="sans" font-size="10.00">id: SAP2.061</text>
</g>
<!-- 66&#45;&gt;2 -->
<g id="edge67" class="edge">
<title>66&#45;&gt;2</title>
<path fill="none" stroke="grey" stroke-width="2" d="M6047.99,-218.03C6044.98,-217.23 6041.96,-216.54 6039,-216 5905.86,-191.77 3807.43,-167.94 3414.22,-163.67"/>
<polygon fill="grey" stroke="grey" stroke-width="2" points="3414.2,-160.17 3404.17,-163.57 3414.13,-167.17 3414.2,-160.17"/>
</g>
<!-- 67 -->
<g id="node68" class="node">
<title>67</title>
<path fill="none" stroke="#56a9d8" stroke-width="2" stroke-dasharray="5,2" d="M6210,-252C6210,-252 6156,-252 6156,-252 6150,-252 6144,-246 6144,-240 6144,-240 6144,-228 6144,-228 6144,-222 6150,-216 6156,-216 6156,-216 6210,-216 6210,-216 6216,-216 6222,-222 6222,-228 6222,-228 6222,-240 6222,-240 6222,-246 6216,-252 6210,-252"/>
<text text-anchor="middle" x="6183" y="-237" font-family="sans" font-size="10.00">run_busco</text>
<text text-anchor="middle" x="6183" y="-226" font-family="sans" font-size="10.00">id: SAP2.043</text>
</g>
<!-- 67&#45;&gt;2 -->
<g id="edge68" class="edge">
<title>67&#45;&gt;2</title>
<path fill="none" stroke="grey" stroke-width="2" d="M6143.99,-218.03C6140.98,-217.23 6137.96,-216.54 6135,-216 5996.88,-190.91 3816.76,-167.71 3414.54,-163.63"/>
<polygon fill="grey" stroke="grey" stroke-width="2" points="3414.29,-160.13 3404.26,-163.53 3414.22,-167.13 3414.29,-160.13"/>
</g>
<!-- 68 -->
<g id="node69" class="node">
<title>68</title>
<path fill="none" stroke="#56a9d8" stroke-width="2" stroke-dasharray="5,2" d="M6306,-252C6306,-252 6252,-252 6252,-252 6246,-252 6240,-246 6240,-240 6240,-240 6240,-228 6240,-228 6240,-222 6246,-216 6252,-216 6252,-216 6306,-216 6306,-216 6312,-216 6318,-222 6318,-228 6318,-228 6318,-240 6318,-240 6318,-246 6312,-252 6306,-252"/>
<text text-anchor="middle" x="6279" y="-237" font-family="sans" font-size="10.00">run_busco</text>
<text text-anchor="middle" x="6279" y="-226" font-family="sans" font-size="10.00">id: SAP2.016</text>
</g>
<!-- 68&#45;&gt;2 -->
<g id="edge69" class="edge">
<title>68&#45;&gt;2</title>
<path fill="none" stroke="grey" stroke-width="2" d="M6239.99,-218.03C6236.98,-217.23 6233.96,-216.54 6231,-216 6087.85,-190.04 3824.48,-167.48 3414.44,-163.59"/>
<polygon fill="grey" stroke="grey" stroke-width="2" points="3414.29,-160.09 3404.25,-163.49 3414.22,-167.09 3414.29,-160.09"/>
</g>
<!-- 69 -->
<g id="node70" class="node">
<title>69</title>
<path fill="none" stroke="#56a9d8" stroke-width="2" stroke-dasharray="5,2" d="M6402,-252C6402,-252 6348,-252 6348,-252 6342,-252 6336,-246 6336,-240 6336,-240 6336,-228 6336,-228 6336,-222 6342,-216 6348,-216 6348,-216 6402,-216 6402,-216 6408,-216 6414,-222 6414,-228 6414,-228 6414,-240 6414,-240 6414,-246 6408,-252 6402,-252"/>
<text text-anchor="middle" x="6375" y="-237" font-family="sans" font-size="10.00">run_busco</text>
<text text-anchor="middle" x="6375" y="-226" font-family="sans" font-size="10.00">id: SAP2.034</text>
</g>
<!-- 69&#45;&gt;2 -->
<g id="edge70" class="edge">
<title>69&#45;&gt;2</title>
<path fill="none" stroke="grey" stroke-width="2" d="M6335.99,-218.03C6332.98,-217.23 6329.96,-216.54 6327,-216 6178.79,-189.17 3831.63,-167.25 3414.23,-163.55"/>
<polygon fill="grey" stroke="grey" stroke-width="2" points="3414.19,-160.05 3404.16,-163.46 3414.12,-167.05 3414.19,-160.05"/>
</g>
<!-- 70 -->
<g id="node71" class="node">
<title>70</title>
<path fill="none" stroke="#56a9d8" stroke-width="2" stroke-dasharray="5,2" d="M6498,-252C6498,-252 6444,-252 6444,-252 6438,-252 6432,-246 6432,-240 6432,-240 6432,-228 6432,-228 6432,-222 6438,-216 6444,-216 6444,-216 6498,-216 6498,-216 6504,-216 6510,-222 6510,-228 6510,-228 6510,-240 6510,-240 6510,-246 6504,-252 6498,-252"/>
<text text-anchor="middle" x="6471" y="-237" font-family="sans" font-size="10.00">run_busco</text>
<text text-anchor="middle" x="6471" y="-226" font-family="sans" font-size="10.00">id: SAP2.052</text>
</g>
<!-- 70&#45;&gt;2 -->
<g id="edge71" class="edge">
<title>70&#45;&gt;2</title>
<path fill="none" stroke="grey" stroke-width="2" d="M6431.99,-218.03C6428.98,-217.23 6425.96,-216.53 6423,-216 6269.8,-188.31 3840.69,-167.04 3414.56,-163.52"/>
<polygon fill="grey" stroke="grey" stroke-width="2" points="3414.31,-160.01 3404.28,-163.43 3414.26,-167.01 3414.31,-160.01"/>
</g>
<!-- 71 -->
<g id="node72" class="node">
<title>71</title>
<path fill="none" stroke="#56a9d8" stroke-width="2" stroke-dasharray="5,2" d="M6594,-252C6594,-252 6540,-252 6540,-252 6534,-252 6528,-246 6528,-240 6528,-240 6528,-228 6528,-228 6528,-222 6534,-216 6540,-216 6540,-216 6594,-216 6594,-216 6600,-216 6606,-222 6606,-228 6606,-228 6606,-240 6606,-240 6606,-246 6600,-252 6594,-252"/>
<text text-anchor="middle" x="6567" y="-237" font-family="sans" font-size="10.00">run_busco</text>
<text text-anchor="middle" x="6567" y="-226" font-family="sans" font-size="10.00">id: SAP2.069</text>
</g>
<!-- 71&#45;&gt;2 -->
<g id="edge72" class="edge">
<title>71&#45;&gt;2</title>
<path fill="none" stroke="grey" stroke-width="2" d="M6527.99,-218.02C6524.98,-217.23 6521.96,-216.53 6519,-216 6439.78,-201.7 3854.95,-169.22 3414.5,-163.78"/>
<polygon fill="grey" stroke="grey" stroke-width="2" points="3414.24,-160.28 3404.2,-163.65 3414.16,-167.28 3414.24,-160.28"/>
</g>
<!-- 72 -->
<g id="node73" class="node">
<title>72</title>
<path fill="none" stroke="#d85656" stroke-width="2" stroke-dasharray="5,2" d="M5122,-180C5122,-180 5020,-180 5020,-180 5014,-180 5008,-174 5008,-168 5008,-168 5008,-156 5008,-156 5008,-150 5014,-144 5020,-144 5020,-144 5122,-144 5122,-144 5128,-144 5134,-150 5134,-156 5134,-156 5134,-168 5134,-168 5134,-174 5128,-180 5122,-180"/>
<text text-anchor="middle" x="5071" y="-159.5" font-family="sans" font-size="10.00">quast_report_common</text>
</g>
<!-- 72&#45;&gt;1 -->
<g id="edge3" class="edge">
<title>72&#45;&gt;1</title>
<path fill="none" stroke="grey" stroke-width="2" d="M5007.97,-158.33C4741.42,-147.04 3709.49,-103.34 3468.52,-93.14"/>
<polygon fill="grey" stroke="grey" stroke-width="2" points="3468.44,-89.63 3458.3,-92.71 3468.14,-96.63 3468.44,-89.63"/>
</g>
<!-- 73 -->
<g id="node74" class="node">
<title>73</title>
<path fill="none" stroke="#56d8a9" stroke-width="2" stroke-dasharray="5,2" d="M6677.5,-252C6677.5,-252 6636.5,-252 6636.5,-252 6630.5,-252 6624.5,-246 6624.5,-240 6624.5,-240 6624.5,-228 6624.5,-228 6624.5,-222 6630.5,-216 6636.5,-216 6636.5,-216 6677.5,-216 6677.5,-216 6683.5,-216 6689.5,-222 6689.5,-228 6689.5,-228 6689.5,-240 6689.5,-240 6689.5,-246 6683.5,-252 6677.5,-252"/>
<text text-anchor="middle" x="6657" y="-231.5" font-family="sans" font-size="10.00">run_quast</text>
</g>
<!-- 73&#45;&gt;72 -->
<g id="edge73" class="edge">
<title>73&#45;&gt;72</title>
<path fill="none" stroke="grey" stroke-width="2" d="M6624.33,-218.51C6621.22,-217.52 6618.08,-216.65 6615,-216 6470.52,-185.29 5431.51,-168.19 5144.36,-164.01"/>
<polygon fill="grey" stroke="grey" stroke-width="2" points="5144.11,-160.51 5134.06,-163.87 5144.01,-167.51 5144.11,-160.51"/>
</g>
</g>
</svg>
