<?xml version="1.0" encoding="UTF-8" standalone="no"?>
<!DOCTYPE svg PUBLIC "-//W3C//DTD SVG 1.1//EN"
 "http://www.w3.org/Graphics/SVG/1.1/DTD/svg11.dtd">
<!-- Generated by graphviz version 2.50.0 (20211205.1242)
 -->
<!-- Title: snakemake_dag Pages: 1 -->
<svg width="258pt" height="260pt"
 viewBox="0.00 0.00 258.00 260.00" xmlns="http://www.w3.org/2000/svg" xmlns:xlink="http://www.w3.org/1999/xlink">
<g id="graph0" class="graph" transform="scale(1 1) rotate(0) translate(4 256)">
<title>snakemake_dag</title>
<polygon fill="white" stroke="transparent" points="-4,4 -4,-256 254,-256 254,4 -4,4"/>
<!-- 0 -->
<g id="node1" class="node">
<title>0</title>
<path fill="none" stroke="#59d856" stroke-width="2" d="M135,-36C135,-36 105,-36 105,-36 99,-36 93,-30 93,-24 93,-24 93,-12 93,-12 93,-6 99,0 105,0 105,0 135,0 135,0 141,0 147,-6 147,-12 147,-12 147,-24 147,-24 147,-30 141,-36 135,-36"/>
<text text-anchor="middle" x="120" y="-15.5" font-family="sans" font-size="10.00">all</text>
</g>
<!-- 1 -->
<g id="node2" class="node">
<title>1</title>
<path fill="none" stroke="#56a9d8" stroke-width="2" d="M148,-108C148,-108 92,-108 92,-108 86,-108 80,-102 80,-96 80,-96 80,-84 80,-84 80,-78 86,-72 92,-72 92,-72 148,-72 148,-72 154,-72 160,-78 160,-84 160,-84 160,-96 160,-96 160,-102 154,-108 148,-108"/>
<text text-anchor="middle" x="120" y="-87.5" font-family="sans" font-size="10.00">csv_to_excel</text>
</g>
<!-- 1&#45;&gt;0 -->
<g id="edge1" class="edge">
<title>1&#45;&gt;0</title>
<path fill="none" stroke="grey" stroke-width="2" d="M120,-71.7C120,-63.98 120,-54.71 120,-46.11"/>
<polygon fill="grey" stroke="grey" stroke-width="2" points="123.5,-46.1 120,-36.1 116.5,-46.1 123.5,-46.1"/>
</g>
<!-- 2 -->
<g id="node3" class="node">
<title>2</title>
<path fill="none" stroke="#d85656" stroke-width="2" d="M94,-180C94,-180 12,-180 12,-180 6,-180 0,-174 0,-168 0,-168 0,-156 0,-156 0,-150 6,-144 12,-144 12,-144 94,-144 94,-144 100,-144 106,-150 106,-156 106,-156 106,-168 106,-168 106,-174 100,-180 94,-180"/>
<text text-anchor="middle" x="53" y="-159.5" font-family="sans" font-size="10.00">busco_txts_to_csv</text>
</g>
<!-- 2&#45;&gt;1 -->
<g id="edge2" class="edge">
<title>2&#45;&gt;1</title>
<path fill="none" stroke="grey" stroke-width="2" d="M69.56,-143.7C77.68,-135.22 87.59,-124.86 96.47,-115.58"/>
<polygon fill="grey" stroke="grey" stroke-width="2" points="99.24,-117.75 103.63,-108.1 94.19,-112.91 99.24,-117.75"/>
</g>
<!-- 3 -->
<g id="node4" class="node">
<title>3</title>
<path fill="none" stroke="#d8ac56" stroke-width="2" d="M74,-252C74,-252 32,-252 32,-252 26,-252 20,-246 20,-240 20,-240 20,-228 20,-228 20,-222 26,-216 32,-216 32,-216 74,-216 74,-216 80,-216 86,-222 86,-228 86,-228 86,-240 86,-240 86,-246 80,-252 74,-252"/>
<text text-anchor="middle" x="53" y="-231.5" font-family="sans" font-size="10.00">run_busco</text>
</g>
<!-- 3&#45;&gt;2 -->
<g id="edge4" class="edge">
<title>3&#45;&gt;2</title>
<path fill="none" stroke="grey" stroke-width="2" d="M53,-215.7C53,-207.98 53,-198.71 53,-190.11"/>
<polygon fill="grey" stroke="grey" stroke-width="2" points="56.5,-190.1 53,-180.1 49.5,-190.1 56.5,-190.1"/>
</g>
<!-- 4 -->
<g id="node5" class="node">
<title>4</title>
<path fill="none" stroke="#56d8a9" stroke-width="2" d="M238,-180C238,-180 136,-180 136,-180 130,-180 124,-174 124,-168 124,-168 124,-156 124,-156 124,-150 130,-144 136,-144 136,-144 238,-144 238,-144 244,-144 250,-150 250,-156 250,-156 250,-168 250,-168 250,-174 244,-180 238,-180"/>
<text text-anchor="middle" x="187" y="-159.5" font-family="sans" font-size="10.00">quast_report_common</text>
</g>
<!-- 4&#45;&gt;1 -->
<g id="edge3" class="edge">
<title>4&#45;&gt;1</title>
<path fill="none" stroke="grey" stroke-width="2" d="M170.44,-143.7C162.32,-135.22 152.41,-124.86 143.53,-115.58"/>
<polygon fill="grey" stroke="grey" stroke-width="2" points="145.81,-112.91 136.37,-108.1 140.76,-117.75 145.81,-112.91"/>
</g>
<!-- 5 -->
<g id="node6" class="node">
<title>5</title>
<path fill="none" stroke="#afd856" stroke-width="2" d="M207.5,-252C207.5,-252 166.5,-252 166.5,-252 160.5,-252 154.5,-246 154.5,-240 154.5,-240 154.5,-228 154.5,-228 154.5,-222 160.5,-216 166.5,-216 166.5,-216 207.5,-216 207.5,-216 213.5,-216 219.5,-222 219.5,-228 219.5,-228 219.5,-240 219.5,-240 219.5,-246 213.5,-252 207.5,-252"/>
<text text-anchor="middle" x="187" y="-231.5" font-family="sans" font-size="10.00">run_quast</text>
</g>
<!-- 5&#45;&gt;4 -->
<g id="edge5" class="edge">
<title>5&#45;&gt;4</title>
<path fill="none" stroke="grey" stroke-width="2" d="M187,-215.7C187,-207.98 187,-198.71 187,-190.11"/>
<polygon fill="grey" stroke="grey" stroke-width="2" points="190.5,-190.1 187,-180.1 183.5,-190.1 190.5,-190.1"/>
</g>
</g>
</svg>
